<?xml version="1.0" encoding="utf-8"?>
<!-- Generator: Adobe Illustrator 28.1.0, SVG Export Plug-In . SVG Version: 6.00 Build 0)  -->
<svg version="1.1" id="Layer_1" xmlns="http://www.w3.org/2000/svg" xmlns:xlink="http://www.w3.org/1999/xlink" x="0px" y="0px"
	 viewBox="0 0 300 72" style="enable-background:new 0 0 300 72;" xml:space="preserve">
<style type="text/css">
	.st0{fill-rule:evenodd;clip-rule:evenodd;fill:#FC4A23;}
	.st1{enable-background:new    ;}
	.st2{fill:#FFFFFF;}
</style>
<g>
	<path class="st0" d="M75.9,4.4C71.6,5.3,65.2,8.1,61,11c-1.9,1.3-3.5,2.3-3.5,2.5c0,0.1,1.4-0.4,3.1-1.3c5.5-2.6,16.7-6.5,17.1-6
		c0.1,0.1-0.3,0.7-0.8,1.4c-1,1.3-2.2,3.8-2.1,4.6c0,0.3,0.4-0.2,0.8-1C76.9,9,79.5,6.6,82.5,5l2.7-1.3h-3
		C80.5,3.7,77.7,4.1,75.9,4.4z M50.1,16c-12.8,1.2-27.6,7.3-35,14.4c-1,1-1.4,1.5-0.9,1.2C25.2,24.4,34.6,20.7,46.2,19
		c4.9-0.7,16.8-0.6,22,0.2c8.8,1.3,18.5,4.1,27.5,7.8c5.9,2.4,5.9,2.4,5.9,2.2c0-0.3-6.5-3.8-10.3-5.5c-10-4.5-19.1-6.9-29.1-7.8
		C57.1,15.5,55.1,15.5,50.1,16z M125.1,17.7c-2.4,0.9-5.1,3-11.6,8.8c-11.4,10.1-13.6,11.8-21,15.4c-14.3,7-28.7,8.7-46.7,5.6
		c-8.8-1.5-19.6-4.8-28.8-8.8c-2.4-1.1-4.5-1.9-4.6-1.8c-0.2,0.2,4,3.5,7.4,5.7C29.5,49,39.7,53,51.4,55.3c5.4,1,17,1.3,21.6,0.4
		c11.5-2.1,19.3-5.1,28.4-11.1c3.1-2.1,5.4-4.1,13.5-12.6c9.9-10.1,11.4-11.4,14.5-12l1.2-0.3l-1.7,3.2c-2.3,4.4-3.9,8.4-4.7,12.3
		c-0.6,3.1-0.6,3.3,0,6.2c0.6,3,3.5,9.3,4.5,10.2c0.3,0.3-0.1-0.8-0.9-2.3c-2-3.9-3.1-8.3-2.9-11.2c0.4-4.5,4.1-12.8,8.3-18.4
		c0.7-1,1.3-2,1.2-2.1C133.9,17.1,126.6,17.2,125.1,17.7z M46.8,22.8c-1.7,0.2-0.3,0.4,5.3,0.5c11.7,0.4,21.5,2.2,29.7,5.6
		c3.4,1.4,8,3.8,8.3,4.4c0.1,0.2-0.9,1.3-2.2,2.5c-3.9,3.6-12.3,7.4-19.3,8.7c-1.5,0.3-1.3,0.4,1.4,0.2c7.9-0.4,17.1-4,21.2-8.2
		c1.2-1.2,2.4-2.7,2.7-3.2c0.6-1.3,0.5-1.4-4.1-3.8c-5.6-2.8-11.7-4.7-19.6-5.9C66.1,22.8,50.9,22.4,46.8,22.8z M37.4,23.9
		c1.4,3.5,1.5,4,1.4,7.7c0,3.2-0.2,4.4-1.3,7.5c-1.4,4.3-1.4,4.6-0.4,3.3c1.4-1.8,3.1-6,3.3-8.4c0.4-4.1-0.7-8.6-2.9-10.3
		C37.1,23.2,37.1,23.2,37.4,23.9z M25,29.1c-1.2,0.9-1.6,2.8-1.1,4.3c0.4,1.2,2.2,2.2,3.6,2.2c1.1,0,2.9-1.3,3.2-2.5
		c0.4-1.2-0.2-3.5-1.3-4.2C28.4,28,26.2,28.1,25,29.1z M53.2,59.5c4.8,4.4,12.6,7.7,20.6,8.6c1.6,0.2,2.9,0.3,2.9,0.1
		c0-0.1-1.1-0.8-2.3-1.5c-1.3-0.7-3.1-2.2-4.1-3.1c-2.1-2.1-2.3-1.9-0.6,0.4c0.6,0.9,1.1,1.7,1.1,1.7c-0.2,0.2-6.8-2-9.9-3.2
		c-1.6-0.7-4.5-2-6.2-3l-3.2-1.7L53.2,59.5z"/>
	<g class="st1">
		<path class="st2" d="M153.1,31.3l1.6-0.4V13.7l-1.6-0.4v-0.4h7.6c3,0,5.1,0.5,6.4,1.5c1.3,1,1.9,2.4,1.9,4.3
			c0,1.9-0.6,3.4-1.9,4.3c-1.3,1-3.4,1.5-6.4,1.5h-1.5v6.5l1.6,0.4v0.4h-7.7V31.3z M160.7,23.8c1.1,0,2-0.4,2.7-1.3
			c0.7-0.9,1-2.1,1-3.8c0-1.7-0.3-2.9-1-3.8c-0.7-0.9-1.6-1.3-2.7-1.3h-1.5v10.3H160.7z"/>
		<path class="st2" d="M171.4,31.3l1.6-0.4V13.7l-1.6-0.4v-0.4h7.2c3.1,0,5.3,0.5,6.6,1.4c1.3,0.9,2,2.2,2,3.9c0,1.1-0.3,2-0.9,2.7
			s-1.4,1.2-2.3,1.6c-1,0.4-2,0.6-3.2,0.6v0.1c0.7,0,1.3,0.1,1.8,0.3c1.3,0.4,2.1,1.1,2.6,2.1l2.4,5.4l1.4,0.4v0.4h-3.8
			c-1.5,0-2.6-0.8-3.2-2.3l-2.7-6.1h-1.8v7.6l1.9,0.4v0.4h-8V31.3z M178.5,22.7c1.3,0,2.2-0.4,3-1.2s1.1-1.9,1.1-3.4
			s-0.4-2.6-1.1-3.4c-0.7-0.8-1.7-1.2-3-1.2h-1.1v9.2H178.5z"/>
		<path class="st2" d="M190.3,31.3l1.6-0.4V13.7l-1.6-0.4v-0.4h14.4v4.9h-0.8c-0.3-0.3-0.6-0.6-0.9-1c-0.6-1-0.9-2-0.9-3.2h-5.8V22
			h3.1c0.1-0.7,0.4-1.3,0.7-1.9c0.1-0.3,0.3-0.5,0.5-0.8h0.8v6.1h-0.8c-0.2-0.3-0.4-0.5-0.5-0.8c-0.3-0.6-0.6-1.2-0.7-1.9h-3.1v8.4
			h6.3c0-1.1,0.3-2.2,0.9-3.2c0.3-0.4,0.5-0.8,0.9-1h0.8v4.9h-15V31.3z"/>
		<path class="st2" d="M210.1,16.2v14.3l2.2,0.8v0.4h-5.1v-0.4l2.2-0.8V13.7l-1.6-0.4v-0.4h3.4c0.9,0,1.7,0.2,2.2,0.6s1,1,1.4,1.7
			l5.9,11.3l4.5-11.3c0.3-0.8,0.7-1.4,1.2-1.7c0.5-0.4,1.3-0.6,2.4-0.6h2.8v0.4l-1.6,0.4v17.3l1.6,0.4v0.4h-7.7v-0.4l1.6-0.4V16.2
			L219.1,32h-0.8L210.1,16.2z"/>
		<path class="st2" d="M234,31.7v-0.4l1.6-0.4V13.7l-1.6-0.4v-0.4h7.7v0.4l-1.6,0.4v17.3l1.6,0.4v0.4H234z"/>
		<path class="st2" d="M247.7,30.3c-1.4-1.3-2.1-3-2.1-5.3V13.7l-1.6-0.4v-0.4h7.7v0.4l-1.6,0.4V25c0,2.3,0.4,4,1.1,5
			s1.8,1.5,3.1,1.5c0.8,0,1.6-0.3,2.4-0.8c0.7-0.5,1.4-1.3,1.8-2.3c0.5-1,0.7-2.1,0.7-3.4V14.1l-2.2-0.8v-0.4h5.1v0.4l-2.2,0.8V25
			c0,1.5-0.3,2.7-0.8,3.8s-1.3,1.9-2.2,2.5c-0.9,0.6-2,0.9-3.2,0.9C251,32.2,249,31.5,247.7,30.3z"/>
		<path class="st2" d="M266,16.2v14.3l2.2,0.8v0.4H263v-0.4l2.2-0.8V13.7l-1.6-0.4v-0.4h3.4c0.9,0,1.7,0.2,2.2,0.6s1,1,1.4,1.7
			l5.9,11.3l4.5-11.3c0.3-0.8,0.7-1.4,1.2-1.7c0.5-0.4,1.3-0.6,2.4-0.6h2.8v0.4l-1.6,0.4v17.3l1.6,0.4v0.4h-7.7v-0.4l1.6-0.4V16.2
			L275,32h-0.8L266,16.2z"/>
		<path class="st2" d="M155.4,56.6c-1.6-1.7-2.4-4.1-2.4-7.3c0-2.1,0.4-3.8,1.1-5.3c0.7-1.5,1.7-2.6,3-3.4c1.3-0.8,2.8-1.1,4.5-1.1
			c1,0,2.1,0.3,3.1,0.9c0.4,0.2,0.8,0.5,1.2,0.9c0.3-0.5,0.6-0.8,0.9-1.1c0.3-0.2,0.5-0.4,0.5-0.4h0.7v5.1h-1.1
			c-0.2-0.9-0.6-1.6-1.1-2.3c-0.4-0.7-1-1.3-1.6-1.7c-0.6-0.5-1.4-0.7-2.2-0.7c-1.2,0-2.3,0.7-3.1,2.2c-0.8,1.4-1.2,3.8-1.2,7
			c0,3.3,0.4,5.6,1.3,7.1c0.9,1.4,2.1,2.1,3.7,2.1c0.8,0,1.7-0.2,2.4-0.7c0.8-0.5,1.4-1.1,1.9-1.9c0.5-0.8,0.7-1.6,0.7-2.5h0.7
			c0,1-0.3,2-0.8,2.9s-1.3,1.6-2.2,2.1c-0.9,0.5-2,0.8-3.1,0.8C159.3,59.2,157,58.3,155.4,56.6z"/>
		<path class="st2" d="M168.3,58.3l2.2-0.8l7.4-18h0.8l7.7,18.4l1.4,0.4v0.4h-3.2c-0.9,0-1.7-0.2-2.3-0.6c-0.6-0.4-1-1-1.3-1.7
			l-1.4-3.2H173l-1.8,4.3l2,0.8v0.4h-5V58.3z M173.3,52.5h5.9l-3-7.1L173.3,52.5z"/>
		<path class="st2" d="M186.2,40.7l-1.3-0.4v-0.4h3.2c0.9,0,1.7,0.2,2.3,0.6s1,1,1.3,1.7l4.8,10.9l4.4-12l-2-0.8v-0.4h5v0.4
			l-2.2,0.8l-6.6,18h-0.8L186.2,40.7z"/>
		<path class="st2" d="M204.7,58.7v-0.4l1.6-0.4V40.7l-1.6-0.4v-0.4h7.7v0.4l-1.6,0.4v17.3l1.6,0.4v0.4H204.7z"/>
		<path class="st2" d="M212.4,58.3l2.2-0.8l7.4-18h0.8l7.7,18.4l1.4,0.4v0.4h-3.2c-0.9,0-1.7-0.2-2.3-0.6c-0.6-0.4-1-1-1.3-1.7
			l-1.4-3.2h-6.5l-1.8,4.3l2,0.8v0.4h-5V58.3z M217.4,52.5h5.9l-3-7.1L217.4,52.5z"/>
		<path class="st2" d="M232.6,58.3l1.6-0.4V40.7l-1.6-0.4v-0.4h7.2c3.1,0,5.3,0.5,6.6,1.4c1.3,0.9,2,2.2,2,3.9c0,1.1-0.3,2-0.9,2.7
			c-0.6,0.7-1.4,1.2-2.3,1.6c-1,0.4-2,0.6-3.2,0.6v0.1c0.7,0,1.3,0.1,1.8,0.3c1.3,0.4,2.1,1.1,2.6,2.1l2.4,5.4l1.4,0.4v0.4h-3.8
			c-1.5,0-2.6-0.8-3.2-2.3l-2.7-6.1h-1.8v7.6l1.9,0.4v0.4h-8V58.3z M239.8,49.7c1.3,0,2.2-0.4,3-1.2c0.7-0.8,1.1-1.9,1.1-3.4
			s-0.4-2.6-1.1-3.4s-1.7-1.2-3-1.2h-1.1v9.2H239.8z"/>
	</g>
</g>
</svg>
